<svg width="194" height="75" viewBox="0 0 194 75" fill="none" xmlns="http://www.w3.org/2000/svg">
<path d="M5.90845 69.8125C5.90845 59.5683 5.98366 49.3282 5.46259 39.093C4.87114 27.4752 3.35808 16.0155 2.38618 4.44988C2.24039 2.71492 1.38814 1.18497 2.80974 2.48811C10.9192 9.92179 19.9349 16.3523 28.0675 23.7778C31.0321 26.4845 33.7842 29.0708 36.5834 31.8701C37.5123 32.799 38.0292 34.3095 39.214 34.9019" stroke="#FF8A00" stroke-width="3" stroke-linecap="round"/>
<path d="M15.1373 56.5706C15.1373 51.8578 14.3348 47.2423 14.3348 42.5484C14.3348 42.1018 14.0307 37.9229 14.424 37.8C15.8783 37.3456 19.6867 40.3287 20.8889 41.0994C21.8547 41.7185 22.8659 42.4513 23.7647 43.1503C24.59 43.7922 25.5049 44.355 26.3729 44.9337" stroke="#FF8A00" stroke-width="3" stroke-linecap="round"/>
<path d="M187.484 72.8125C187.484 62.5683 187.397 52.3282 187.999 42.093C188.682 30.4752 190.431 19.0155 191.554 7.44988C191.722 5.71492 192.707 4.18497 191.064 5.48811C181.694 12.9218 171.277 19.3523 161.879 26.7778C158.454 29.4845 155.274 32.0708 152.04 34.8701C150.966 35.799 150.369 37.3095 149 37.9019" stroke="#FF8A00" stroke-width="3" stroke-linecap="round"/>
<path d="M176.82 59.5706C176.82 54.8578 177.747 50.2423 177.747 45.5484C177.747 45.1018 178.099 40.9229 177.644 40.8C175.964 40.3456 171.563 43.3287 170.174 44.0994C169.058 44.7185 167.89 45.4513 166.851 46.1503C165.898 46.7922 164.841 47.355 163.838 47.9337" stroke="#FF8A00" stroke-width="3" stroke-linecap="round"/>
</svg>
