<svg width="42" height="65" viewBox="0 0 42 65" fill="none" xmlns="http://www.w3.org/2000/svg">
<path d="M1.91016 2.4563V54.2715H40.092" stroke="#FF8A00" stroke-width="2.2826" stroke-linecap="round"/>
<path d="M9.88301 24.5429C12.7439 21.682 16.2627 20.2516 20.4396 20.2516C24.6165 20.2516 28.1353 21.682 30.9962 24.5429C33.857 27.4037 35.2875 30.894 35.2875 35.0136C35.2875 39.1333 33.857 42.6235 30.9962 45.4844C28.1353 48.3167 24.6165 49.7328 20.4396 49.7328C16.2627 49.7328 12.7439 48.3167 9.88301 45.4844C7.02215 42.6235 5.59171 39.1333 5.59171 35.0136C5.59171 30.894 7.02215 27.4037 9.88301 24.5429ZM11.2562 44.2828C13.7166 46.7718 16.7777 48.0163 20.4396 48.0163C24.1015 48.0163 27.1626 46.7718 29.623 44.2828C32.0833 41.7653 33.3135 38.6755 33.3135 35.0136C33.3135 31.3231 32.0833 28.2334 29.623 25.7444C27.1626 23.2269 24.1015 21.9681 20.4396 21.9681C16.7777 21.9681 13.7166 23.2269 11.2562 25.7444C8.79588 28.2334 7.56571 31.3231 7.56571 35.0136C7.56571 38.6755 8.79588 41.7653 11.2562 44.2828Z" fill="#FF8A00"/>
<path d="M36.849 8.29074C37.1807 8.82672 37.8841 8.99232 38.4201 8.66061C38.9561 8.3289 39.1217 7.62549 38.79 7.08951L36.849 8.29074ZM19.9638 7.69013L21.0891 7.88047L19.9638 7.69013ZM38.79 7.08951C37.0953 4.35115 35.0601 2.62219 32.8996 1.69633C30.7431 0.77216 28.5373 0.680581 26.5504 1.09274C24.5721 1.50313 22.7898 2.41618 21.44 3.53703C20.1167 4.63585 19.0851 6.04218 18.8385 7.49978L21.0891 7.88047C21.2095 7.169 21.7983 6.20645 22.8982 5.29312C23.9716 4.40182 25.4151 3.65946 27.0141 3.32776C28.6045 2.99783 30.3276 3.07747 32.0005 3.7944C33.6695 4.50964 35.3643 5.89166 36.849 8.29074L38.79 7.08951ZM18.8385 7.49978C18.7315 8.1326 18.662 9.34448 18.6124 10.8908C18.5618 12.4683 18.5302 14.476 18.513 16.7544C18.4785 21.3124 18.5015 26.978 18.5474 32.5031C18.5933 38.0292 18.6621 43.4191 18.7195 47.4271C18.7481 49.4313 18.7739 51.0901 18.7926 52.248C18.8019 52.827 18.8094 53.2807 18.8146 53.5898C18.8172 53.7443 18.8192 53.8626 18.8206 53.9424C18.8213 53.9823 18.8218 54.0125 18.8222 54.0328C18.8223 54.0429 18.8225 54.0505 18.8226 54.0557C18.8226 54.0582 18.8226 54.0602 18.8227 54.0614C18.8227 54.0621 18.8227 54.0626 18.8227 54.0629C18.8227 54.0632 18.8227 54.0634 19.9638 54.0435C21.105 54.0236 21.105 54.0234 21.1049 54.0231C21.1049 54.0228 21.1049 54.0223 21.1049 54.0217C21.1049 54.0204 21.1049 54.0185 21.1048 54.016C21.1047 54.0109 21.1046 54.0033 21.1044 53.9933C21.1041 53.9731 21.1036 53.943 21.1029 53.9032C21.1015 53.8237 21.0995 53.7056 21.0969 53.5514C21.0917 53.2428 21.0842 52.7897 21.0749 52.2113C21.0563 51.0545 21.0305 49.3971 21.0018 47.3945C20.9445 43.3891 20.8758 38.0041 20.8299 32.4841C20.7841 26.9631 20.7612 21.3116 20.7955 16.7716C20.8127 14.501 20.8441 12.5145 20.8939 10.964C20.9446 9.38225 21.0127 8.33218 21.0891 7.88047L18.8385 7.49978Z" fill="#FF8A00"/>
<path d="M34.1823 21.1738L6.45508 21.1738" stroke="#FF8A00" stroke-width="2.2826" stroke-linecap="round"/>
<path d="M5.85836 57.213H6.76912V64.1521H5.85836V61.1336H2.34543V64.1521H1.43467V57.213H2.34543V60.2315L5.85836 60.2228V57.213ZM13.6288 64.1521L12.8221 62.2959H9.42197L8.62397 64.1521H7.63515L10.619 57.213H11.6165L14.6176 64.1521H13.6288ZM9.82097 61.3765L12.4231 61.3678L11.1221 58.3493L9.82097 61.3765ZM21.1688 59.4422C21.1688 59.8874 21.0531 60.2604 20.8218 60.5611C20.5905 60.8618 20.2725 61.096 19.8677 61.2637L21.1081 64.1521H20.0932L18.957 61.5066C18.7141 61.547 18.4481 61.5673 18.159 61.5673H16.4155V64.1521H15.4874V57.213H18.159C19.0553 57.213 19.781 57.3749 20.3361 57.6987C20.8912 58.0225 21.1688 58.6037 21.1688 59.4422ZM18.159 60.6652C18.8876 60.6652 19.4022 60.5669 19.7029 60.3703C20.0036 60.1679 20.154 59.8498 20.154 59.4162C20.154 58.994 19.9978 58.676 19.6856 58.462C19.3791 58.2423 18.8702 58.1324 18.159 58.1324H16.4155V60.6652H18.159ZM25.0561 57.213C25.7558 57.2072 26.2849 57.3518 26.6434 57.6467C27.0077 57.9358 27.1898 58.3261 27.1898 58.8177C27.1898 59.1877 27.08 59.5 26.8602 59.7544C26.6463 60.0031 26.3514 60.1477 25.9755 60.1881C26.5942 60.2402 27.0944 60.4137 27.4761 60.7086C27.8577 61.0035 28.0486 61.4314 28.0486 61.9923C28.0486 62.7267 27.7681 63.2703 27.2072 63.623C26.6521 63.9757 25.935 64.1521 25.0561 64.1521H22.2978V57.213H25.0561ZM25.0561 59.7891C25.4608 59.7891 25.7615 59.714 25.9581 59.5636C26.1548 59.4133 26.2531 59.2051 26.2531 58.9391C26.2531 58.6904 26.1548 58.4967 25.9581 58.3579C25.7615 58.2134 25.4608 58.1411 25.0561 58.1411H23.2259V59.7891H25.0561ZM25.0561 63.224C25.7847 63.224 26.2964 63.1083 26.5913 62.877C26.8863 62.64 27.0337 62.3248 27.0337 61.9316C27.0337 61.5615 26.8805 61.2637 26.574 61.0382C26.2675 60.8126 25.7615 60.6999 25.0561 60.6999H23.2259V63.224H25.0561ZM29.8241 57.213V60.9948C29.8241 61.5326 29.879 61.9663 29.9889 62.2959C30.0987 62.6197 30.2809 62.8597 30.5353 63.0158C30.7898 63.1662 31.1309 63.2413 31.5588 63.2413C31.9694 63.2413 32.2932 63.1662 32.5303 63.0158C32.7674 62.8597 32.938 62.6197 33.0421 62.2959C33.1462 61.9663 33.1982 61.5326 33.1982 60.9948V57.213H34.109V60.9948C34.109 61.7003 34.0338 62.2814 33.8834 62.7383C33.7331 63.1951 33.47 63.5449 33.0941 63.7878C32.724 64.0307 32.2123 64.1521 31.5588 64.1521C30.8765 64.1521 30.3416 64.0307 29.9542 63.7878C29.5667 63.5449 29.295 63.198 29.1388 62.7469C28.9885 62.2901 28.9133 61.7061 28.9133 60.9948V57.213H29.8241ZM40.2086 57.213L36.5309 63.25L40.2086 63.2413V64.1521H34.9783L38.682 58.1237H35.1257V57.2217L39.2371 57.213H40.2086Z" fill="black"/>
</svg>
