<svg width="223" height="113" viewBox="0 0 223 113" fill="none" xmlns="http://www.w3.org/2000/svg">
<path d="M221.787 104.777C222.492 104.342 222.712 103.418 222.277 102.713L215.191 91.2217C214.756 90.5166 213.832 90.2974 213.127 90.7322C212.422 91.1671 212.203 92.0912 212.638 92.7963L218.936 103.011L208.722 109.309C208.016 109.744 207.797 110.668 208.232 111.373C208.667 112.078 209.591 112.297 210.296 111.862L221.787 104.777ZM1.1036 4.49653C30.6671 2.44973 51.1315 5.81665 67.1801 12.3993C83.2372 18.9854 94.9998 28.8382 107.136 40.0163C131.473 62.4321 156.994 89.8624 220.654 104.96L221.346 102.041C158.506 87.1378 133.48 60.202 109.168 37.8097C96.9803 26.5837 84.8933 16.4221 68.3186 9.62368C51.7354 2.82184 30.7858 -0.565665 0.896397 1.50369L1.1036 4.49653Z" fill="#FF8A00"/>
</svg>
