<svg width="94" height="117" viewBox="0 0 94 117" fill="none" xmlns="http://www.w3.org/2000/svg">
<path d="M2 115C2.77172 114.346 3.68384 113.873 4.51224 113.299C10.7332 108.986 16.3324 103.721 21.6226 98.3324C35.7226 83.9698 48.558 68.2987 60.0871 51.7995C71.019 36.1549 79.8334 19.5855 89.0797 2.95361" stroke="#FF8A00" stroke-width="3" stroke-linecap="round"/>
<path d="M89.5195 2C89.5195 3.4537 89.5876 4.90998 89.674 6.35484C89.8186 8.77047 90.0226 11.176 90.2818 13.5637C90.7141 17.5466 91.3433 21.4255 91.9299 25.3453" stroke="#FF8A00" stroke-width="3" stroke-linecap="round"/>
<path d="M89.1759 2.03589C88.9193 2.09432 88.6585 2.22741 88.4241 2.3349C86.8852 3.04073 85.3856 3.83262 83.8646 4.5756C80.94 6.00415 77.9796 7.35218 74.9683 8.58767C72.1637 9.73835 69.313 10.745 66.4648 11.7784" stroke="#FF8A00" stroke-width="3" stroke-linecap="round"/>
</svg>
